<?xml version="1.0" standalone="no"?>
<!DOCTYPE svg PUBLIC "-//W3C//DTD SVG 20010904//EN"
 "http://www.w3.org/TR/2001/REC-SVG-20010904/DTD/svg10.dtd">
<svg version="1.0" xmlns="http://www.w3.org/2000/svg"
 width="1024.000000pt" height="1024.000000pt" viewBox="0 0 1024.000000 1024.000000"
 preserveAspectRatio="xMidYMid meet">

<g transform="translate(0.000000,1024.000000) scale(0.100000,-0.100000)"
fill="#2fbf71" stroke="none">
<path d="M2465 8719 c-102 -14 -190 -55 -258 -119 -132 -123 -157 -201 -157
-477 l0 -193 155 0 155 0 0 44 c0 176 87 314 247 393 l77 38 1293 3 c1445 3
1358 7 1503 -68 148 -77 253 -183 330 -332 l41 -78 237 2 237 3 2 392 c1 236
-2 395 -7 398 -6 3 -59 3 -119 -1 l-110 -7 2 -266 2 -266 -111 -3 -112 -3 -7
113 c-4 62 -5 185 -3 273 l3 160 -1670 1 c-918 1 -1697 -2 -1730 -7z"/>
<path d="M6520 8329 l0 -399 320 0 320 0 2 -867 c2 -478 1 -874 -1 -880 -2
-10 -75 -13 -322 -13 l-319 0 0 -429 0 -430 111 -3 c61 -2 113 -1 115 1 2 2 4
143 4 313 l0 308 495 0 495 0 0 1070 c0 1162 2 1113 -55 1158 -27 22 -31 22
-481 22 l-454 0 -2 93 c-2 50 -3 173 -3 272 l0 180 -112 1 -113 1 0 -398z
m1010 -556 c1 -87 2 -279 3 -428 l2 -270 -67 -3 -68 -3 0 431 0 430 65 0 65 0
0 -157z m0 -1081 c0 -55 3 -187 7 -295 l6 -197 -71 0 -72 0 0 295 0 295 65 0
65 0 0 -98z"/>
<path d="M6960 8568 l0 -157 353 -3 352 -3 66 -32 c79 -39 150 -111 187 -191
l27 -57 3 -1207 2 -1208 -495 0 -495 0 0 -198 0 -199 418 -5 c229 -2 516 -4
637 -4 l220 1 3 1490 c3 1662 6 1572 -66 1694 -74 125 -201 211 -342 232 -47
6 -222 9 -472 7 l-398 -3 0 -157z"/>
<path d="M3470 8093 c0 -49 3 -105 6 -125 l7 -37 781 -3 781 -3 54 -23 c121
-51 206 -141 252 -264 l24 -63 3 -822 3 -823 353 0 353 0 7 -37 c3 -21 6 -161
6 -310 l0 -273 109 0 c88 0 110 3 115 15 3 8 6 202 6 430 l0 415 -350 0 -350
0 -2 858 -3 857 -28 53 c-54 102 -143 181 -250 221 -58 21 -62 21 -967 21
l-910 0 0 -87z"/>
<path d="M2793 8100 c-71 -28 -146 -98 -180 -168 -24 -49 -28 -69 -28 -142 0
-66 5 -96 22 -132 30 -66 96 -133 162 -165 49 -24 68 -28 146 -28 76 0 99 4
146 26 68 32 121 85 156 158 24 48 28 69 28 141 0 71 -4 94 -26 141 -33 70
-96 134 -158 162 -68 31 -199 34 -268 7z"/>
<path d="M2050 7380 l0 -340 23 -2 c12 0 31 -1 42 -1 11 0 131 1 268 2 l247 1
0 33 c0 29 -5 34 -58 57 -77 33 -153 111 -183 187 -20 52 -22 77 -23 228 l-1
170 -157 3 -158 3 0 -341z"/>
<path d="M3468 7548 c-3 -167 -5 -175 -33 -233 -36 -74 -113 -152 -182 -185
-48 -22 -53 -28 -53 -57 l0 -33 660 0 660 0 0 -865 0 -864 668 -3 c367 -2 668
-3 668 -3 1 0 3 90 5 200 l4 200 -353 3 -354 2 4 913 3 912 -23 48 c-13 26
-40 61 -60 77 -73 61 -64 60 -873 60 l-737 0 -4 -172z m344 -109 c29 -34 34
-87 11 -117 -45 -61 -121 -66 -167 -11 -31 36 -33 73 -6 116 33 55 122 61 162
12z m1086 7 c3 -3 7 -141 10 -306 l5 -300 -72 0 -71 0 0 235 0 235 -345 0
-345 0 0 70 0 70 193 3 c239 4 617 0 625 -7z m10 -1378 l4 -478 -71 0 -71 0 0
480 0 481 67 -3 66 -3 5 -477z"/>
<path d="M5874 7686 c-72 -72 -27 -185 75 -186 36 0 49 6 77 34 56 56 44 135
-26 171 -49 25 -88 19 -126 -19z"/>
<path d="M6240 7645 l0 -75 168 2 167 3 3 66 c4 82 11 79 -190 79 l-148 0 0
-75z"/>
<path d="M6788 7700 c-56 -43 -61 -125 -10 -172 34 -32 63 -39 107 -27 87 24
107 152 32 202 -36 23 -98 22 -129 -3z"/>
<path d="M6330 7377 c-105 -24 -199 -99 -244 -196 -17 -37 -21 -65 -21 -141 0
-85 3 -101 28 -149 66 -125 176 -193 312 -192 215 0 373 174 351 384 -21 201
-223 340 -426 294z"/>
<path d="M2837 7233 c-4 -3 -7 -48 -7 -100 l0 -93 79 0 c93 0 91 -3 91 116 l0
84 -78 0 c-43 0 -82 -3 -85 -7z"/>
<path d="M2050 6665 l0 -145 358 0 c403 0 436 -5 577 -78 89 -47 199 -155 243
-239 61 -116 72 -186 72 -460 l0 -243 -55 0 -55 0 0 -210 0 -211 -67 3 -68 3
2 208 3 207 -134 0 -133 0 5 -210 5 -210 -77 0 -76 0 0 310 0 310 226 0 226 0
-4 158 c-3 145 -5 161 -30 214 -50 107 -138 181 -259 219 -55 17 -96 19 -410
19 l-349 0 2 -2238 3 -2239 42 -84 c70 -142 156 -221 294 -271 l64 -23 2675 0
c2582 0 2677 1 2743 19 170 47 324 217 357 395 6 32 10 323 10 732 l0 679
-1197 -2 -1198 -3 4 -130 c2 -71 5 -131 6 -133 2 -2 474 -3 1050 -2 l1046 1
-3 -418 c-3 -407 -4 -420 -26 -483 -31 -85 -70 -146 -135 -208 -57 -53 -88
-72 -176 -106 l-56 -21 -2399 -3 c-2652 -3 -2461 -7 -2575 61 -74 45 -154 134
-183 204 l-23 58 -3 1368 -2 1367 580 0 580 0 3 -617 c1 -340 2 -750 2 -910
-1 -256 1 -293 15 -293 8 -1 479 -1 1045 0 l1030 0 3 135 3 135 -661 0 -660 0
0 1765 0 1765 -1130 0 -1130 0 0 -145z m1710 -365 l0 -250 -70 0 -70 0 0 243
c0 134 3 247 7 250 3 4 35 7 70 7 l63 0 0 -250z m320 0 l0 -250 -70 0 -70 0 0
250 0 250 70 0 70 0 0 -250z m-119 -449 c63 -64 20 -171 -69 -171 -92 0 -137
106 -73 171 23 23 38 29 71 29 33 0 48 -6 71 -29z m-38 -380 c69 -27 92 -119
42 -165 -93 -87 -232 29 -154 128 33 42 69 53 112 37z m38 -440 c64 -64 20
-171 -69 -171 -59 0 -102 39 -102 92 0 49 13 73 48 92 45 25 90 20 123 -13z
m3 -410 c41 -43 40 -105 -3 -143 -99 -89 -233 44 -142 141 24 26 37 31 73 31
36 0 50 -6 72 -29z m-3 -400 c39 -39 40 -96 3 -140 -22 -26 -33 -31 -71 -31
-62 0 -103 40 -103 100 0 33 6 48 29 71 23 23 38 29 71 29 33 0 48 -6 71 -29z
m-3 -406 c38 -32 48 -72 29 -116 -18 -45 -38 -60 -86 -66 -36 -5 -44 -2 -76
30 -28 28 -35 43 -35 74 1 88 101 135 168 78z m-5 -385 c70 -55 45 -170 -40
-186 -87 -16 -150 66 -112 149 24 54 105 73 152 37z"/>
<path d="M6814 6586 c-66 -29 -91 -95 -59 -156 45 -87 178 -69 204 27 24 86
-64 165 -145 129z"/>
<path d="M5891 6576 c-51 -29 -68 -112 -31 -159 85 -107 253 6 183 123 -28 48
-100 65 -152 36z"/>
<path d="M6240 6440 l0 -70 170 0 170 0 0 70 0 70 -170 0 -170 0 0 -70z"/>
<path d="M4520 4290 l0 -790 555 0 555 0 0 198 c0 108 -3 206 -6 217 -3 11
-27 30 -55 43 -67 32 -137 105 -172 180 -27 58 -29 70 -25 151 3 70 10 99 31
144 34 67 119 148 182 172 l45 18 0 228 0 229 -555 0 -555 0 0 -790z m471 501
c23 -24 29 -38 29 -74 0 -38 -5 -49 -31 -71 -68 -58 -169 -15 -169 72 0 33 6
45 35 71 48 42 95 42 136 2z m-12 -417 c13 -9 29 -32 37 -50 12 -29 12 -39 0
-68 -44 -106 -196 -79 -196 34 0 81 93 130 159 84z m-16 -425 c62 -32 78 -116
30 -161 -38 -35 -76 -42 -117 -23 -65 31 -75 108 -22 161 36 36 70 43 109 23z"/>
<path d="M5844 5019 c3 -34 6 -139 6 -234 l0 -171 36 -17 c60 -29 129 -102
159 -169 74 -165 21 -347 -130 -450 -30 -20 -59 -38 -64 -40 -7 -2 -8 -79 -4
-221 l6 -217 726 2 726 3 3 122 3 123 -248 2 -248 3 -3 355 c-2 195 -1 437 3
538 l7 183 242 -1 241 -1 3 125 3 126 -737 0 -737 0 7 -61z m645 -215 c36 -26
54 -79 41 -119 -14 -43 -49 -65 -100 -65 -33 0 -48 6 -71 29 -42 42 -40 92 5
137 39 39 85 45 125 18z m10 -440 c39 -33 49 -82 25 -122 -35 -60 -117 -71
-165 -23 -90 90 42 228 140 145z m-1 -429 c80 -67 18 -200 -84 -181 -44 9 -84
57 -84 103 0 27 8 43 34 69 43 43 90 46 134 9z"/>
<path d="M7450 5047 c0 -19 3 -75 6 -125 l7 -92 243 0 244 0 0 -251 0 -250
143 3 142 3 3 373 2 372 -395 0 -395 0 0 -33z"/>
<path d="M7247 4596 c-119 -50 -197 -150 -212 -273 -27 -216 181 -413 394
-374 117 22 209 89 258 190 24 49 28 68 28 146 0 78 -4 97 -28 146 -15 31 -48
76 -73 99 -66 61 -123 83 -224 87 -73 3 -93 0 -143 -21z"/>
<path d="M2664 4599 c-49 -24 -68 -103 -39 -159 20 -38 43 -50 98 -50 55 0 92
27 108 79 27 92 -77 173 -167 130z"/>
<path d="M3132 4597 c-53 -30 -72 -110 -38 -161 22 -35 77 -58 114 -50 38 9
81 52 88 89 17 91 -84 166 -164 122z"/>
<path d="M5658 4454 c-102 -31 -157 -159 -109 -252 51 -99 161 -138 258 -91
51 24 75 53 99 116 15 39 16 52 5 91 -30 115 -137 172 -253 136z"/>
<path d="M2600 3716 c0 -267 3 -486 8 -488 4 -2 58 -2 120 0 l112 3 -2 482 -3
482 -117 3 -118 3 0 -485z"/>
<path d="M3074 4169 c3 -17 6 -92 6 -165 l0 -134 115 0 115 0 0 165 0 165
-121 0 -121 0 6 -31z"/>
<path d="M7978 4133 l-28 -4 0 -190 0 -189 -251 0 -252 0 7 -52 c3 -29 6 -86
6 -125 l0 -73 390 0 390 0 0 320 0 320 -117 -1 c-65 -1 -130 -4 -145 -6z"/>
<path d="M3078 3673 c-2 -5 -2 -270 0 -591 l3 -582 527 2 527 3 0 125 0 125
-415 5 -415 5 4 458 3 457 -115 0 c-64 0 -117 -3 -119 -7z"/>
<path d="M2600 2549 l0 -491 29 -29 30 -29 738 2 738 3 3 128 3 127 -651 0
-650 0 0 390 0 390 -120 0 -120 0 0 -491z"/>
<path d="M7215 2773 c-157 -56 -252 -169 -276 -328 -41 -263 204 -501 468
-455 141 24 242 99 304 225 32 66 34 75 34 175 0 97 -2 110 -32 173 -39 82
-107 151 -189 191 -51 26 -72 30 -159 33 -77 3 -112 -1 -150 -14z m189 -174
c52 -14 130 -88 144 -138 33 -109 -10 -211 -112 -263 -59 -30 -162 -21 -219
19 -146 102 -111 317 62 379 45 16 75 17 125 3z"/>
<path d="M4273 2693 c4 -38 7 -96 7 -130 l0 -63 70 0 70 0 0 130 0 130 -76 0
-77 0 6 -67z"/>
<path d="M4750 2380 l0 -380 545 0 545 0 0 380 0 380 -545 0 -545 0 0 -380z"/>
<path d="M6190 2380 l0 -380 223 2 222 3 3 378 2 377 -225 0 -225 0 0 -380z"/>
<path d="M4274 2199 c3 -34 6 -93 6 -131 l0 -69 68 3 67 3 3 128 3 127 -77 0
-77 0 7 -61z"/>
</g>
</svg>
